# Blender 5.1.1
# www.blender.org
mtllib tetri.mtl
o Cube
v 0.895807 0.895807 -0.895807
v 0.895807 -0.895807 -0.895807
v 0.895807 0.895807 0.895807
v 0.895807 -0.895807 0.895807
v -0.895807 0.895807 -0.895807
v -0.895807 -0.895807 -0.895807
v -0.895807 0.895807 0.895807
v -0.895807 -0.895807 0.895807
v -0.921855 -0.921855 0.000000
v 0.000000 -0.921855 -0.921855
v 0.921855 0.000000 -0.921855
v -0.921855 0.000000 0.921855
v 0.921855 0.000000 0.921855
v -0.921855 0.000000 -0.921855
v 0.000000 0.921855 0.921855
v 0.921855 0.921855 0.000000
v 0.000000 -0.921855 0.921855
v -0.921855 0.921855 0.000000
v 0.000000 0.921855 -0.921855
v 0.921855 -0.921855 0.000000
v 0.000000 0.000000 -1.000000
v 1.000000 0.000000 0.000000
v 0.000000 -1.000000 0.000000
v -1.000000 0.000000 0.000000
v 0.000000 0.000000 1.000000
v 0.000000 1.000000 0.000000
vn -0.0580 0.9966 0.0580
vn -0.0580 0.0580 0.9966
vn -0.9966 0.0580 -0.0580
vn 0.0580 -0.9966 0.0580
vn 0.9966 0.0580 0.0580
vn 0.0580 0.0580 -0.9966
vn 0.0580 -0.0580 -0.9966
vn -0.0580 -0.0580 -0.9966
vn -0.0580 0.0580 -0.9966
vn 0.9966 -0.0580 0.0580
vn 0.9966 -0.0580 -0.0580
vn 0.9966 0.0580 -0.0580
vn -0.0580 -0.9966 0.0580
vn -0.0580 -0.9966 -0.0580
vn 0.0580 -0.9966 -0.0580
vn -0.9966 -0.0580 -0.0580
vn -0.9966 -0.0580 0.0580
vn -0.9966 0.0580 0.0580
vn -0.0580 -0.0580 0.9966
vn 0.0580 -0.0580 0.9966
vn 0.0580 0.0580 0.9966
vn 0.0580 0.9966 0.0580
vn 0.0580 0.9966 -0.0580
vn -0.0580 0.9966 -0.0580
vt 0.750000 0.625000
vt 0.875000 0.625000
vt 0.875000 0.750000
vt 0.750000 0.750000
vt 0.500000 0.875000
vt 0.625000 0.875000
vt 0.625000 1.000000
vt 0.500000 1.000000
vt 0.500000 0.125000
vt 0.625000 0.125000
vt 0.625000 0.250000
vt 0.500000 0.250000
vt 0.250000 0.625000
vt 0.375000 0.625000
vt 0.375000 0.750000
vt 0.250000 0.750000
vt 0.500000 0.625000
vt 0.625000 0.625000
vt 0.625000 0.750000
vt 0.500000 0.750000
vt 0.500000 0.375000
vt 0.625000 0.375000
vt 0.625000 0.500000
vt 0.500000 0.500000
vt 0.375000 0.375000
vt 0.375000 0.500000
vt 0.375000 0.250000
vt 0.125000 0.625000
vt 0.125000 0.750000
vt 0.125000 0.500000
vt 0.250000 0.500000
vt 0.375000 0.125000
vt 0.375000 0.000000
vt 0.500000 0.000000
vt 0.625000 0.000000
vt 0.375000 0.875000
vt 0.375000 1.000000
vt 0.750000 0.500000
vt 0.875000 0.500000
s 0
usemtl Material
f 26/1/1 18/2/1 7/3/1 15/4/1
f 25/5/2 15/6/2 7/7/2 12/8/2
f 24/9/3 18/10/3 5/11/3 14/12/3
f 23/13/4 20/14/4 4/15/4 17/16/4
f 22/17/5 16/18/5 3/19/5 13/20/5
f 21/21/6 19/22/6 1/23/6 11/24/6
f 10/25/7 21/21/7 11/24/7 2/26/7
f 6/27/8 14/12/8 21/21/8 10/25/8
f 14/12/9 5/11/9 19/22/9 21/21/9
f 20/14/10 22/17/10 13/20/10 4/15/10
f 2/26/11 11/24/11 22/17/11 20/14/11
f 11/24/12 1/23/12 16/18/12 22/17/12
f 9/28/13 23/13/13 17/16/13 8/29/13
f 6/30/14 10/31/14 23/13/14 9/28/14
f 10/31/15 2/26/15 20/14/15 23/13/15
f 9/32/16 24/9/16 14/12/16 6/27/16
f 8/33/17 12/34/17 24/9/17 9/32/17
f 12/34/18 7/35/18 18/10/18 24/9/18
f 17/36/19 25/5/19 12/8/19 8/37/19
f 4/15/20 13/20/20 25/5/20 17/36/20
f 13/20/21 3/19/21 15/6/21 25/5/21
f 16/18/22 26/1/22 15/4/22 3/19/22
f 1/23/23 19/38/23 26/1/23 16/18/23
f 19/38/24 5/39/24 18/2/24 26/1/24
o Cube.001
v 0.895807 0.895807 -2.735206
v 0.895807 -0.895807 -2.735206
v 0.895807 0.895807 -0.943592
v 0.895807 -0.895807 -0.943592
v -0.895807 0.895807 -2.735206
v -0.895807 -0.895807 -2.735206
v -0.895807 0.895807 -0.943592
v -0.895807 -0.895807 -0.943592
v -0.921855 -0.921855 -1.839399
v 0.000000 -0.921855 -2.761254
v 0.921855 0.000000 -2.761254
v -0.921855 0.000000 -0.917544
v 0.921855 0.000000 -0.917544
v -0.921855 0.000000 -2.761254
v 0.000000 0.921855 -0.917544
v 0.921855 0.921855 -1.839399
v 0.000000 -0.921855 -0.917544
v -0.921855 0.921855 -1.839399
v 0.000000 0.921855 -2.761254
v 0.921855 -0.921855 -1.839399
v 0.000000 0.000000 -2.839399
v 1.000000 0.000000 -1.839399
v 0.000000 -1.000000 -1.839399
v -1.000000 0.000000 -1.839399
v 0.000000 0.000000 -0.839399
v 0.000000 1.000000 -1.839399
vn -0.0580 0.9966 0.0580
vn -0.0580 0.0580 0.9966
vn -0.9966 0.0580 -0.0580
vn 0.0580 -0.9966 0.0580
vn 0.9966 0.0580 0.0580
vn 0.0580 0.0580 -0.9966
vn 0.0580 -0.0580 -0.9966
vn -0.0580 -0.0580 -0.9966
vn -0.0580 0.0580 -0.9966
vn 0.9966 -0.0580 0.0580
vn 0.9966 -0.0580 -0.0580
vn 0.9966 0.0580 -0.0580
vn -0.0580 -0.9966 0.0580
vn -0.0580 -0.9966 -0.0580
vn 0.0580 -0.9966 -0.0580
vn -0.9966 -0.0580 -0.0580
vn -0.9966 -0.0580 0.0580
vn -0.9966 0.0580 0.0580
vn -0.0580 -0.0580 0.9966
vn 0.0580 -0.0580 0.9966
vn 0.0580 0.0580 0.9966
vn 0.0580 0.9966 0.0580
vn 0.0580 0.9966 -0.0580
vn -0.0580 0.9966 -0.0580
vt 0.750000 0.625000
vt 0.875000 0.625000
vt 0.875000 0.750000
vt 0.750000 0.750000
vt 0.500000 0.875000
vt 0.625000 0.875000
vt 0.625000 1.000000
vt 0.500000 1.000000
vt 0.500000 0.125000
vt 0.625000 0.125000
vt 0.625000 0.250000
vt 0.500000 0.250000
vt 0.250000 0.625000
vt 0.375000 0.625000
vt 0.375000 0.750000
vt 0.250000 0.750000
vt 0.500000 0.625000
vt 0.625000 0.625000
vt 0.625000 0.750000
vt 0.500000 0.750000
vt 0.500000 0.375000
vt 0.625000 0.375000
vt 0.625000 0.500000
vt 0.500000 0.500000
vt 0.375000 0.375000
vt 0.375000 0.500000
vt 0.375000 0.250000
vt 0.125000 0.625000
vt 0.125000 0.750000
vt 0.125000 0.500000
vt 0.250000 0.500000
vt 0.375000 0.125000
vt 0.375000 0.000000
vt 0.500000 0.000000
vt 0.625000 0.000000
vt 0.375000 0.875000
vt 0.375000 1.000000
vt 0.750000 0.500000
vt 0.875000 0.500000
s 0
usemtl Material.001
f 52/40/25 44/41/25 33/42/25 41/43/25
f 51/44/26 41/45/26 33/46/26 38/47/26
f 50/48/27 44/49/27 31/50/27 40/51/27
f 49/52/28 46/53/28 30/54/28 43/55/28
f 48/56/29 42/57/29 29/58/29 39/59/29
f 47/60/30 45/61/30 27/62/30 37/63/30
f 36/64/31 47/60/31 37/63/31 28/65/31
f 32/66/32 40/51/32 47/60/32 36/64/32
f 40/51/33 31/50/33 45/61/33 47/60/33
f 46/53/34 48/56/34 39/59/34 30/54/34
f 28/65/35 37/63/35 48/56/35 46/53/35
f 37/63/36 27/62/36 42/57/36 48/56/36
f 35/67/37 49/52/37 43/55/37 34/68/37
f 32/69/38 36/70/38 49/52/38 35/67/38
f 36/70/39 28/65/39 46/53/39 49/52/39
f 35/71/40 50/48/40 40/51/40 32/66/40
f 34/72/41 38/73/41 50/48/41 35/71/41
f 38/73/42 33/74/42 44/49/42 50/48/42
f 43/75/43 51/44/43 38/47/43 34/76/43
f 30/54/44 39/59/44 51/44/44 43/75/44
f 39/59/45 29/58/45 41/45/45 51/44/45
f 42/57/46 52/40/46 41/43/46 29/58/46
f 27/62/47 45/77/47 52/40/47 42/57/47
f 45/77/48 31/78/48 44/41/48 52/40/48
o Cube.002
v 0.895807 2.782607 -2.727709
v 0.895807 0.990993 -2.727709
v 0.895807 2.782607 -0.936096
v 0.895807 0.990993 -0.936096
v -0.895807 2.782607 -2.727709
v -0.895807 0.990993 -2.727709
v -0.895807 2.782607 -0.936096
v -0.895807 0.990993 -0.936096
v -0.921855 0.964945 -1.831903
v 0.000000 0.964945 -2.753758
v 0.921855 1.886800 -2.753758
v -0.921855 1.886800 -0.910047
v 0.921855 1.886800 -0.910047
v -0.921855 1.886800 -2.753758
v 0.000000 2.808656 -0.910047
v 0.921855 2.808656 -1.831903
v 0.000000 0.964945 -0.910047
v -0.921855 2.808656 -1.831903
v 0.000000 2.808656 -2.753758
v 0.921855 0.964945 -1.831903
v 0.000000 1.886800 -2.831903
v 1.000000 1.886800 -1.831903
v 0.000000 0.886800 -1.831903
v -1.000000 1.886800 -1.831903
v 0.000000 1.886800 -0.831903
v 0.000000 2.886800 -1.831903
vn -0.0580 0.9966 0.0580
vn -0.0580 0.0580 0.9966
vn -0.9966 0.0580 -0.0580
vn 0.0580 -0.9966 0.0580
vn 0.9966 0.0580 0.0580
vn 0.0580 0.0580 -0.9966
vn 0.0580 -0.0580 -0.9966
vn -0.0580 -0.0580 -0.9966
vn -0.0580 0.0580 -0.9966
vn 0.9966 -0.0580 0.0580
vn 0.9966 -0.0580 -0.0580
vn 0.9966 0.0580 -0.0580
vn -0.0580 -0.9966 0.0580
vn -0.0580 -0.9966 -0.0580
vn 0.0580 -0.9966 -0.0580
vn -0.9966 -0.0580 -0.0580
vn -0.9966 -0.0580 0.0580
vn -0.9966 0.0580 0.0580
vn -0.0580 -0.0580 0.9966
vn 0.0580 -0.0580 0.9966
vn 0.0580 0.0580 0.9966
vn 0.0580 0.9966 0.0580
vn 0.0580 0.9966 -0.0580
vn -0.0580 0.9966 -0.0580
vt 0.750000 0.625000
vt 0.875000 0.625000
vt 0.875000 0.750000
vt 0.750000 0.750000
vt 0.500000 0.875000
vt 0.625000 0.875000
vt 0.625000 1.000000
vt 0.500000 1.000000
vt 0.500000 0.125000
vt 0.625000 0.125000
vt 0.625000 0.250000
vt 0.500000 0.250000
vt 0.250000 0.625000
vt 0.375000 0.625000
vt 0.375000 0.750000
vt 0.250000 0.750000
vt 0.500000 0.625000
vt 0.625000 0.625000
vt 0.625000 0.750000
vt 0.500000 0.750000
vt 0.500000 0.375000
vt 0.625000 0.375000
vt 0.625000 0.500000
vt 0.500000 0.500000
vt 0.375000 0.375000
vt 0.375000 0.500000
vt 0.375000 0.250000
vt 0.125000 0.625000
vt 0.125000 0.750000
vt 0.125000 0.500000
vt 0.250000 0.500000
vt 0.375000 0.125000
vt 0.375000 0.000000
vt 0.500000 0.000000
vt 0.625000 0.000000
vt 0.375000 0.875000
vt 0.375000 1.000000
vt 0.750000 0.500000
vt 0.875000 0.500000
s 0
usemtl Material.002
f 78/79/49 70/80/49 59/81/49 67/82/49
f 77/83/50 67/84/50 59/85/50 64/86/50
f 76/87/51 70/88/51 57/89/51 66/90/51
f 75/91/52 72/92/52 56/93/52 69/94/52
f 74/95/53 68/96/53 55/97/53 65/98/53
f 73/99/54 71/100/54 53/101/54 63/102/54
f 62/103/55 73/99/55 63/102/55 54/104/55
f 58/105/56 66/90/56 73/99/56 62/103/56
f 66/90/57 57/89/57 71/100/57 73/99/57
f 72/92/58 74/95/58 65/98/58 56/93/58
f 54/104/59 63/102/59 74/95/59 72/92/59
f 63/102/60 53/101/60 68/96/60 74/95/60
f 61/106/61 75/91/61 69/94/61 60/107/61
f 58/108/62 62/109/62 75/91/62 61/106/62
f 62/109/63 54/104/63 72/92/63 75/91/63
f 61/110/64 76/87/64 66/90/64 58/105/64
f 60/111/65 64/112/65 76/87/65 61/110/65
f 64/112/66 59/113/66 70/88/66 76/87/66
f 69/114/67 77/83/67 64/86/67 60/115/67
f 56/93/68 65/98/68 77/83/68 69/114/68
f 65/98/69 55/97/69 67/84/69 77/83/69
f 68/96/70 78/79/70 67/82/70 55/97/70
f 53/101/71 71/116/71 78/79/71 68/96/71
f 71/116/72 57/117/72 70/80/72 78/79/72
o Cube.003
v 0.895807 4.615906 -2.724333
v 0.895807 2.824292 -2.724333
v 0.895807 4.615906 -0.932719
v 0.895807 2.824292 -0.932719
v -0.895807 4.615906 -2.724333
v -0.895807 2.824292 -2.724333
v -0.895807 4.615906 -0.932719
v -0.895807 2.824292 -0.932719
v -0.921855 2.798244 -1.828526
v 0.000000 2.798244 -2.750381
v 0.921855 3.720099 -2.750381
v -0.921855 3.720099 -0.906671
v 0.921855 3.720099 -0.906671
v -0.921855 3.720099 -2.750381
v 0.000000 4.641954 -0.906671
v 0.921855 4.641954 -1.828526
v 0.000000 2.798244 -0.906671
v -0.921855 4.641954 -1.828526
v 0.000000 4.641954 -2.750381
v 0.921855 2.798244 -1.828526
v 0.000000 3.720099 -2.828526
v 1.000000 3.720099 -1.828526
v 0.000000 2.720099 -1.828526
v -1.000000 3.720099 -1.828526
v 0.000000 3.720099 -0.828526
v 0.000000 4.720099 -1.828526
vn -0.0580 0.9966 0.0580
vn -0.0580 0.0580 0.9966
vn -0.9966 0.0580 -0.0580
vn 0.0580 -0.9966 0.0580
vn 0.9966 0.0580 0.0580
vn 0.0580 0.0580 -0.9966
vn 0.0580 -0.0580 -0.9966
vn -0.0580 -0.0580 -0.9966
vn -0.0580 0.0580 -0.9966
vn 0.9966 -0.0580 0.0580
vn 0.9966 -0.0580 -0.0580
vn 0.9966 0.0580 -0.0580
vn -0.0580 -0.9966 0.0580
vn -0.0580 -0.9966 -0.0580
vn 0.0580 -0.9966 -0.0580
vn -0.9966 -0.0580 -0.0580
vn -0.9966 -0.0580 0.0580
vn -0.9966 0.0580 0.0580
vn -0.0580 -0.0580 0.9966
vn 0.0580 -0.0580 0.9966
vn 0.0580 0.0580 0.9966
vn 0.0580 0.9966 0.0580
vn 0.0580 0.9966 -0.0580
vn -0.0580 0.9966 -0.0580
vt 0.750000 0.625000
vt 0.875000 0.625000
vt 0.875000 0.750000
vt 0.750000 0.750000
vt 0.500000 0.875000
vt 0.625000 0.875000
vt 0.625000 1.000000
vt 0.500000 1.000000
vt 0.500000 0.125000
vt 0.625000 0.125000
vt 0.625000 0.250000
vt 0.500000 0.250000
vt 0.250000 0.625000
vt 0.375000 0.625000
vt 0.375000 0.750000
vt 0.250000 0.750000
vt 0.500000 0.625000
vt 0.625000 0.625000
vt 0.625000 0.750000
vt 0.500000 0.750000
vt 0.500000 0.375000
vt 0.625000 0.375000
vt 0.625000 0.500000
vt 0.500000 0.500000
vt 0.375000 0.375000
vt 0.375000 0.500000
vt 0.375000 0.250000
vt 0.125000 0.625000
vt 0.125000 0.750000
vt 0.125000 0.500000
vt 0.250000 0.500000
vt 0.375000 0.125000
vt 0.375000 0.000000
vt 0.500000 0.000000
vt 0.625000 0.000000
vt 0.375000 0.875000
vt 0.375000 1.000000
vt 0.750000 0.500000
vt 0.875000 0.500000
s 0
usemtl Material.003
f 104/118/73 96/119/73 85/120/73 93/121/73
f 103/122/74 93/123/74 85/124/74 90/125/74
f 102/126/75 96/127/75 83/128/75 92/129/75
f 101/130/76 98/131/76 82/132/76 95/133/76
f 100/134/77 94/135/77 81/136/77 91/137/77
f 99/138/78 97/139/78 79/140/78 89/141/78
f 88/142/79 99/138/79 89/141/79 80/143/79
f 84/144/80 92/129/80 99/138/80 88/142/80
f 92/129/81 83/128/81 97/139/81 99/138/81
f 98/131/82 100/134/82 91/137/82 82/132/82
f 80/143/83 89/141/83 100/134/83 98/131/83
f 89/141/84 79/140/84 94/135/84 100/134/84
f 87/145/85 101/130/85 95/133/85 86/146/85
f 84/147/86 88/148/86 101/130/86 87/145/86
f 88/148/87 80/143/87 98/131/87 101/130/87
f 87/149/88 102/126/88 92/129/88 84/144/88
f 86/150/89 90/151/89 102/126/89 87/149/89
f 90/151/90 85/152/90 96/127/90 102/126/90
f 95/153/91 103/122/91 90/125/91 86/154/91
f 82/132/92 91/137/92 103/122/92 95/153/92
f 91/137/93 81/136/93 93/123/93 103/122/93
f 94/135/94 104/118/94 93/121/94 81/136/94
f 79/140/95 97/155/95 104/118/95 94/135/95
f 97/155/96 83/156/96 96/119/96 104/118/96
