# Blender 5.1.1
# www.blender.org
mtllib tophat.mtl
o Cylinder
v 0.000000 -0.116818 -1.000000
v 0.000000 0.116818 -1.000000
v 0.195090 -0.116818 -0.980785
v 0.195090 0.116818 -0.980785
v 0.382683 -0.116818 -0.923880
v 0.382683 0.116818 -0.923880
v 0.555570 -0.116818 -0.831470
v 0.555570 0.116818 -0.831470
v 0.707107 -0.116818 -0.707107
v 0.707107 0.116818 -0.707107
v 0.831470 -0.116818 -0.555570
v 0.831470 0.116818 -0.555570
v 0.923880 -0.116818 -0.382683
v 0.923880 0.116818 -0.382683
v 0.980785 -0.116818 -0.195090
v 0.980785 0.116818 -0.195090
v 1.000000 -0.116818 0.000000
v 1.000000 0.116818 0.000000
v 0.980785 -0.116818 0.195090
v 0.980785 0.116818 0.195090
v 0.923880 -0.116818 0.382683
v 0.923880 0.116818 0.382683
v 0.831470 -0.116818 0.555570
v 0.831470 0.116818 0.555570
v 0.707107 -0.116818 0.707107
v 0.707107 0.116818 0.707107
v 0.555570 -0.116818 0.831470
v 0.555570 0.116818 0.831470
v 0.382683 -0.116818 0.923880
v 0.382683 0.116818 0.923880
v 0.195090 -0.116818 0.980785
v 0.195090 0.116818 0.980785
v 0.000000 -0.116818 1.000000
v 0.000000 0.116818 1.000000
v -0.195090 -0.116818 0.980785
v -0.195090 0.116818 0.980785
v -0.382683 -0.116818 0.923880
v -0.382683 0.116818 0.923880
v -0.555570 -0.116818 0.831470
v -0.555570 0.116818 0.831470
v -0.707107 -0.116818 0.707107
v -0.707107 0.116818 0.707107
v -0.831470 -0.116818 0.555570
v -0.831470 0.116818 0.555570
v -0.923880 -0.116818 0.382683
v -0.923880 0.116818 0.382683
v -0.980785 -0.116818 0.195090
v -0.980785 0.116818 0.195090
v -1.000000 -0.116818 0.000000
v -1.000000 0.116818 0.000000
v -0.980785 -0.116818 -0.195090
v -0.980785 0.116818 -0.195090
v -0.923880 -0.116818 -0.382683
v -0.923880 0.116818 -0.382683
v -0.831470 -0.116818 -0.555570
v -0.831470 0.116818 -0.555570
v -0.707107 -0.116818 -0.707107
v -0.707107 0.116818 -0.707107
v -0.555570 -0.116818 -0.831470
v -0.555570 0.116818 -0.831470
v -0.382683 -0.116818 -0.923880
v -0.382683 0.116818 -0.923880
v -0.195090 -0.116818 -0.980785
v -0.195090 0.116818 -0.980785
vn -0.0000 -0.9924 -0.1231
vn -0.0000 0.9924 -0.1231
vn 0.0240 -0.9924 -0.1207
vn 0.0240 0.9924 -0.1207
vn 0.0471 -0.9924 -0.1137
vn 0.0471 0.9924 -0.1137
vn 0.0684 -0.9924 -0.1023
vn 0.0684 0.9924 -0.1023
vn 0.0870 -0.9924 -0.0870
vn 0.0870 0.9924 -0.0870
vn 0.1023 -0.9924 -0.0684
vn 0.1023 0.9924 -0.0684
vn 0.1137 -0.9924 -0.0471
vn 0.1137 0.9924 -0.0471
vn 0.1207 -0.9924 -0.0240
vn 0.1207 0.9924 -0.0240
vn 0.1231 -0.9924 -0.0000
vn 0.1231 0.9924 -0.0000
vn 0.1207 -0.9924 0.0240
vn 0.1207 0.9924 0.0240
vn 0.1137 -0.9924 0.0471
vn 0.1137 0.9924 0.0471
vn 0.1023 -0.9924 0.0684
vn 0.1023 0.9924 0.0684
vn 0.0870 -0.9924 0.0870
vn 0.0870 0.9924 0.0870
vn 0.0684 -0.9924 0.1023
vn 0.0684 0.9924 0.1023
vn 0.0471 -0.9924 0.1137
vn 0.0471 0.9924 0.1137
vn 0.0240 -0.9924 0.1207
vn 0.0240 0.9924 0.1207
vn -0.0000 -0.9924 0.1231
vn -0.0000 0.9924 0.1231
vn -0.0240 -0.9924 0.1207
vn -0.0240 0.9924 0.1207
vn -0.0471 -0.9924 0.1137
vn -0.0471 0.9924 0.1137
vn -0.0684 -0.9924 0.1023
vn -0.0684 0.9924 0.1023
vn -0.0870 -0.9924 0.0870
vn -0.0870 0.9924 0.0870
vn -0.1023 -0.9924 0.0684
vn -0.1023 0.9924 0.0684
vn -0.1137 -0.9924 0.0471
vn -0.1137 0.9924 0.0471
vn -0.1207 -0.9924 0.0240
vn -0.1207 0.9924 0.0240
vn -0.1231 -0.9924 -0.0000
vn -0.1231 0.9924 -0.0000
vn -0.1207 -0.9924 -0.0240
vn -0.1207 0.9924 -0.0240
vn -0.1137 -0.9924 -0.0471
vn -0.1137 0.9924 -0.0471
vn -0.1023 -0.9924 -0.0684
vn -0.1023 0.9924 -0.0684
vn -0.0870 -0.9924 -0.0870
vn -0.0870 0.9924 -0.0870
vn -0.0684 -0.9924 -0.1023
vn -0.0684 0.9924 -0.1023
vn -0.0471 -0.9924 -0.1137
vn -0.0471 0.9924 -0.1137
vn -0.0240 -0.9924 -0.1207
vn -0.0240 0.9924 -0.1207
vt 0.256078 0.000255
vt 0.511393 0.000255
vt 0.511393 0.016212
vt 0.256078 0.016212
vt 0.511393 0.032169
vt 0.256078 0.032169
vt 0.511393 0.048126
vt 0.256078 0.048126
vt 0.511393 0.064083
vt 0.256078 0.064083
vt 0.511393 0.080040
vt 0.256078 0.080040
vt 0.511393 0.095998
vt 0.256078 0.095998
vt 0.511393 0.111955
vt 0.256078 0.111955
vt 0.511393 0.127912
vt 0.256078 0.127912
vt 0.511393 0.143869
vt 0.256078 0.143869
vt 0.511393 0.159826
vt 0.256078 0.159826
vt 0.511393 0.175783
vt 0.256078 0.175783
vt 0.511393 0.191740
vt 0.256078 0.191740
vt 0.511393 0.207698
vt 0.256078 0.207698
vt 0.511393 0.223655
vt 0.256078 0.223655
vt 0.511393 0.239612
vt 0.256078 0.239612
vt 0.511393 0.255569
vt 0.256078 0.255569
vt 0.511393 0.271526
vt 0.256078 0.271526
vt 0.511393 0.287483
vt 0.256078 0.287483
vt 0.511393 0.303441
vt 0.256078 0.303441
vt 0.511393 0.319398
vt 0.256078 0.319398
vt 0.511393 0.335355
vt 0.256078 0.335355
vt 0.511393 0.351312
vt 0.256078 0.351312
vt 0.511393 0.367269
vt 0.256078 0.367269
vt 0.511393 0.383226
vt 0.256078 0.383226
vt 0.511393 0.399183
vt 0.256078 0.399183
vt 0.511393 0.415141
vt 0.256078 0.415141
vt 0.511393 0.431098
vt 0.256078 0.431098
vt 0.511393 0.447055
vt 0.256078 0.447055
vt 0.511393 0.463012
vt 0.256078 0.463012
vt 0.511393 0.478969
vt 0.256078 0.478969
vt 0.134228 0.999745
vt 0.110203 0.999745
vt 0.086641 0.995058
vt 0.064445 0.985865
vt 0.044470 0.972518
vt 0.027482 0.955530
vt 0.014135 0.935555
vt 0.004942 0.913359
vt 0.000255 0.889797
vt 0.000255 0.865772
vt 0.004942 0.842210
vt 0.014135 0.820014
vt 0.027482 0.800039
vt 0.044470 0.783051
vt 0.064445 0.769704
vt 0.086641 0.760511
vt 0.110203 0.755824
vt 0.134228 0.755824
vt 0.157790 0.760511
vt 0.179986 0.769704
vt 0.199961 0.783051
vt 0.216949 0.800039
vt 0.230296 0.820014
vt 0.239489 0.842210
vt 0.244176 0.865772
vt 0.244176 0.889797
vt 0.239489 0.913359
vt 0.230296 0.935555
vt 0.216949 0.955530
vt 0.199961 0.972518
vt 0.179986 0.985865
vt 0.157790 0.995058
vt 0.511393 0.494926
vt 0.256078 0.494926
vt 0.511393 0.510884
vt 0.256078 0.510884
vt 0.260765 0.668928
vt 0.269959 0.691124
vt 0.283306 0.711099
vt 0.300294 0.728087
vt 0.320269 0.741434
vt 0.342465 0.750628
vt 0.366027 0.755314
vt 0.390051 0.755314
vt 0.413614 0.750628
vt 0.435809 0.741434
vt 0.455785 0.728087
vt 0.472772 0.711099
vt 0.486119 0.691124
vt 0.495313 0.668928
vt 0.500000 0.645366
vt 0.500000 0.621342
vt 0.495313 0.597779
vt 0.486119 0.575584
vt 0.472772 0.555608
vt 0.455785 0.538621
vt 0.435809 0.525273
vt 0.413614 0.516080
vt 0.390051 0.511393
vt 0.366027 0.511393
vt 0.342465 0.516080
vt 0.320269 0.525273
vt 0.300294 0.538621
vt 0.283306 0.555608
vt 0.269959 0.575584
vt 0.260765 0.597779
vt 0.256078 0.621342
vt 0.256078 0.645366
s 1
usemtl Material.001
f 1/1/1 2/2/2 4/3/4 3/4/3
f 3/4/3 4/3/4 6/5/6 5/6/5
f 5/6/5 6/5/6 8/7/8 7/8/7
f 7/8/7 8/7/8 10/9/10 9/10/9
f 9/10/9 10/9/10 12/11/12 11/12/11
f 11/12/11 12/11/12 14/13/14 13/14/13
f 13/14/13 14/13/14 16/15/16 15/16/15
f 15/16/15 16/15/16 18/17/18 17/18/17
f 17/18/17 18/17/18 20/19/20 19/20/19
f 19/20/19 20/19/20 22/21/22 21/22/21
f 21/22/21 22/21/22 24/23/24 23/24/23
f 23/24/23 24/23/24 26/25/26 25/26/25
f 25/26/25 26/25/26 28/27/28 27/28/27
f 27/28/27 28/27/28 30/29/30 29/30/29
f 29/30/29 30/29/30 32/31/32 31/32/31
f 31/32/31 32/31/32 34/33/34 33/34/33
f 33/34/33 34/33/34 36/35/36 35/36/35
f 35/36/35 36/35/36 38/37/38 37/38/37
f 37/38/37 38/37/38 40/39/40 39/40/39
f 39/40/39 40/39/40 42/41/42 41/42/41
f 41/42/41 42/41/42 44/43/44 43/44/43
f 43/44/43 44/43/44 46/45/46 45/46/45
f 45/46/45 46/45/46 48/47/48 47/48/47
f 47/48/47 48/47/48 50/49/50 49/50/49
f 49/50/49 50/49/50 52/51/52 51/52/51
f 51/52/51 52/51/52 54/53/54 53/54/53
f 53/54/53 54/53/54 56/55/56 55/56/55
f 55/56/55 56/55/56 58/57/58 57/58/57
f 57/58/57 58/57/58 60/59/60 59/60/59
f 59/60/59 60/59/60 62/61/62 61/62/61
f 4/63/4 2/64/2 64/65/64 62/66/62 60/67/60 58/68/58 56/69/56 54/70/54 52/71/52 50/72/50 48/73/48 46/74/46 44/75/44 42/76/42 40/77/40 38/78/38 36/79/36 34/80/34 32/81/32 30/82/30 28/83/28 26/84/26 24/85/24 22/86/22 20/87/20 18/88/18 16/89/16 14/90/14 12/91/12 10/92/10 8/93/8 6/94/6
f 61/62/61 62/61/62 64/95/64 63/96/63
f 63/96/63 64/95/64 2/97/2 1/98/1
f 1/99/1 3/100/3 5/101/5 7/102/7 9/103/9 11/104/11 13/105/13 15/106/15 17/107/17 19/108/19 21/109/21 23/110/23 25/111/25 27/112/27 29/113/29 31/114/31 33/115/33 35/116/35 37/117/37 39/118/39 41/119/41 43/120/43 45/121/45 47/122/47 49/123/49 51/124/51 53/125/53 55/126/55 57/127/57 59/128/59 61/129/61 63/130/63
o Cylinder.001
v 0.000000 -0.038082 -0.822142
v 0.000000 1.110039 -0.879230
v 0.160392 -0.038082 -0.806345
v 0.171529 1.110039 -0.862335
v 0.314620 -0.038082 -0.759560
v 0.336467 1.110039 -0.812302
v 0.456758 -0.038082 -0.683586
v 0.488474 1.110039 -0.731053
v 0.581342 -0.038082 -0.581342
v 0.621709 1.110039 -0.621709
v 0.683586 -0.038082 -0.456758
v 0.731053 1.110039 -0.488474
v 0.759560 -0.038082 -0.314620
v 0.812302 1.110039 -0.336467
v 0.806345 -0.038082 -0.160392
v 0.862335 1.110039 -0.171529
v 0.822142 -0.038082 0.000000
v 0.879230 1.110039 -0.000000
v 0.806345 -0.038082 0.160392
v 0.862335 1.110039 0.171529
v 0.759560 -0.038082 0.314620
v 0.812302 1.110039 0.336467
v 0.683586 -0.038082 0.456758
v 0.731053 1.110039 0.488474
v 0.581342 -0.038082 0.581342
v 0.621709 1.110039 0.621709
v 0.456758 -0.038082 0.683586
v 0.488474 1.110039 0.731053
v 0.314620 -0.038082 0.759560
v 0.336467 1.110039 0.812302
v 0.160392 -0.038082 0.806345
v 0.171529 1.110039 0.862335
v 0.000000 -0.038082 0.822142
v 0.000000 1.110039 0.879230
v -0.160392 -0.038082 0.806345
v -0.171529 1.110039 0.862335
v -0.314620 -0.038082 0.759560
v -0.336467 1.110039 0.812302
v -0.456758 -0.038082 0.683586
v -0.488474 1.110039 0.731053
v -0.581342 -0.038082 0.581342
v -0.621709 1.110039 0.621709
v -0.683586 -0.038082 0.456758
v -0.731053 1.110039 0.488474
v -0.759560 -0.038082 0.314620
v -0.812302 1.110039 0.336467
v -0.806345 -0.038082 0.160392
v -0.862335 1.110039 0.171529
v -0.822142 -0.038082 0.000000
v -0.879230 1.110039 -0.000000
v -0.806345 -0.038082 -0.160392
v -0.862335 1.110039 -0.171529
v -0.759560 -0.038082 -0.314620
v -0.812302 1.110039 -0.336467
v -0.683586 -0.038082 -0.456758
v -0.731053 1.110039 -0.488474
v -0.581342 -0.038082 -0.581342
v -0.621709 1.110039 -0.621709
v -0.456758 -0.038082 -0.683586
v -0.488474 1.110039 -0.731053
v -0.314620 -0.038082 -0.759560
v -0.336467 1.110039 -0.812302
v -0.160392 -0.038082 -0.806345
v -0.171529 1.110039 -0.862335
vn -0.0000 -0.8131 -0.5821
vn -0.0000 0.7933 -0.6088
vn 0.1136 -0.8131 -0.5709
vn 0.1188 0.7933 -0.5971
vn 0.2228 -0.8131 -0.5378
vn 0.2330 0.7933 -0.5624
vn 0.3234 -0.8131 -0.4840
vn 0.3382 0.7933 -0.5062
vn 0.4116 -0.8131 -0.4116
vn 0.4305 0.7933 -0.4305
vn 0.4840 -0.8131 -0.3234
vn 0.5062 0.7933 -0.3382
vn 0.5378 -0.8131 -0.2228
vn 0.5624 0.7933 -0.2330
vn 0.5709 -0.8131 -0.1136
vn 0.5971 0.7933 -0.1188
vn 0.5821 -0.8131 -0.0000
vn 0.6088 0.7933 -0.0000
vn 0.5709 -0.8131 0.1136
vn 0.5971 0.7933 0.1188
vn 0.5378 -0.8131 0.2228
vn 0.5624 0.7933 0.2330
vn 0.4840 -0.8131 0.3234
vn 0.5062 0.7933 0.3382
vn 0.4116 -0.8131 0.4116
vn 0.4305 0.7933 0.4305
vn 0.3234 -0.8131 0.4840
vn 0.3382 0.7933 0.5062
vn 0.2228 -0.8131 0.5378
vn 0.2330 0.7933 0.5624
vn 0.1136 -0.8131 0.5709
vn 0.1188 0.7933 0.5971
vn -0.0000 -0.8131 0.5821
vn -0.0000 0.7933 0.6088
vn -0.1136 -0.8131 0.5709
vn -0.1188 0.7933 0.5971
vn -0.2228 -0.8131 0.5378
vn -0.2330 0.7933 0.5624
vn -0.3234 -0.8131 0.4840
vn -0.3382 0.7933 0.5062
vn -0.4116 -0.8131 0.4116
vn -0.4305 0.7933 0.4305
vn -0.4840 -0.8131 0.3234
vn -0.5062 0.7933 0.3382
vn -0.5378 -0.8131 0.2228
vn -0.5624 0.7933 0.2330
vn -0.5709 -0.8131 0.1136
vn -0.5971 0.7933 0.1188
vn -0.5821 -0.8131 -0.0000
vn -0.6088 0.7933 -0.0000
vn -0.5709 -0.8131 -0.1136
vn -0.5971 0.7933 -0.1188
vn -0.5378 -0.8131 -0.2228
vn -0.5624 0.7933 -0.2330
vn -0.4840 -0.8131 -0.3234
vn -0.5062 0.7933 -0.3382
vn -0.4116 -0.8131 -0.4116
vn -0.4305 0.7933 -0.4305
vn -0.3234 -0.8131 -0.4840
vn -0.3382 0.7933 -0.5062
vn -0.2228 -0.8131 -0.5378
vn -0.2330 0.7933 -0.5624
vn -0.1136 -0.8131 -0.5709
vn -0.1188 0.7933 -0.5971
vt 0.000255 0.000255
vt 0.255569 0.000255
vt 0.255569 0.016212
vt 0.000255 0.016212
vt 0.255569 0.032169
vt 0.000255 0.032169
vt 0.255569 0.048126
vt 0.000255 0.048126
vt 0.255569 0.064083
vt 0.000255 0.064083
vt 0.255569 0.080040
vt 0.000255 0.080040
vt 0.255569 0.095998
vt 0.000255 0.095998
vt 0.255569 0.111955
vt 0.000255 0.111955
vt 0.255569 0.127912
vt 0.000255 0.127912
vt 0.255569 0.143869
vt 0.000255 0.143869
vt 0.255569 0.159826
vt 0.000255 0.159826
vt 0.255569 0.175783
vt 0.000255 0.175783
vt 0.255569 0.191740
vt 0.000255 0.191740
vt 0.255569 0.207698
vt 0.000255 0.207698
vt 0.255569 0.223655
vt 0.000255 0.223655
vt 0.255569 0.239612
vt 0.000255 0.239612
vt 0.255569 0.255569
vt 0.000255 0.255569
vt 0.255569 0.271526
vt 0.000255 0.271526
vt 0.255569 0.287483
vt 0.000255 0.287483
vt 0.255569 0.303441
vt 0.000255 0.303441
vt 0.255569 0.319398
vt 0.000255 0.319398
vt 0.255569 0.335355
vt 0.000255 0.335355
vt 0.255569 0.351312
vt 0.000255 0.351312
vt 0.255569 0.367269
vt 0.000255 0.367269
vt 0.255569 0.383226
vt 0.000255 0.383226
vt 0.255569 0.399183
vt 0.000255 0.399183
vt 0.255569 0.415141
vt 0.000255 0.415141
vt 0.255569 0.431098
vt 0.000255 0.431098
vt 0.255569 0.447055
vt 0.000255 0.447055
vt 0.255569 0.463012
vt 0.000255 0.463012
vt 0.255569 0.478969
vt 0.000255 0.478969
vt 0.878913 0.755314
vt 0.854889 0.755314
vt 0.831326 0.750628
vt 0.809131 0.741434
vt 0.789156 0.728087
vt 0.772168 0.711099
vt 0.758821 0.691124
vt 0.749627 0.668928
vt 0.744940 0.645366
vt 0.744940 0.621342
vt 0.749627 0.597779
vt 0.758821 0.575584
vt 0.772168 0.555608
vt 0.789156 0.538621
vt 0.809131 0.525273
vt 0.831326 0.516080
vt 0.854889 0.511393
vt 0.878913 0.511393
vt 0.902476 0.516080
vt 0.924671 0.525273
vt 0.944647 0.538621
vt 0.961634 0.555608
vt 0.974981 0.575584
vt 0.984175 0.597779
vt 0.988862 0.621342
vt 0.988862 0.645366
vt 0.984175 0.668928
vt 0.974981 0.691124
vt 0.961634 0.711099
vt 0.944647 0.728087
vt 0.924671 0.741434
vt 0.902476 0.750628
vt 0.255569 0.494926
vt 0.000255 0.494926
vt 0.255569 0.510884
vt 0.000255 0.510884
vt 0.004942 0.668928
vt 0.014135 0.691124
vt 0.027482 0.711099
vt 0.044470 0.728087
vt 0.064445 0.741434
vt 0.086641 0.750628
vt 0.110203 0.755314
vt 0.134228 0.755314
vt 0.157790 0.750628
vt 0.179986 0.741434
vt 0.199961 0.728087
vt 0.216949 0.711099
vt 0.230296 0.691124
vt 0.239489 0.668928
vt 0.244176 0.645366
vt 0.244176 0.621342
vt 0.239489 0.597779
vt 0.230296 0.575584
vt 0.216949 0.555608
vt 0.199961 0.538621
vt 0.179986 0.525273
vt 0.157790 0.516080
vt 0.134228 0.511393
vt 0.110203 0.511393
vt 0.086641 0.516080
vt 0.064445 0.525273
vt 0.044470 0.538621
vt 0.027482 0.555608
vt 0.014135 0.575584
vt 0.004942 0.597779
vt 0.000255 0.621342
vt 0.000255 0.645366
s 1
usemtl Material.001
f 65/131/65 66/132/66 68/133/68 67/134/67
f 67/134/67 68/133/68 70/135/70 69/136/69
f 69/136/69 70/135/70 72/137/72 71/138/71
f 71/138/71 72/137/72 74/139/74 73/140/73
f 73/140/73 74/139/74 76/141/76 75/142/75
f 75/142/75 76/141/76 78/143/78 77/144/77
f 77/144/77 78/143/78 80/145/80 79/146/79
f 79/146/79 80/145/80 82/147/82 81/148/81
f 81/148/81 82/147/82 84/149/84 83/150/83
f 83/150/83 84/149/84 86/151/86 85/152/85
f 85/152/85 86/151/86 88/153/88 87/154/87
f 87/154/87 88/153/88 90/155/90 89/156/89
f 89/156/89 90/155/90 92/157/92 91/158/91
f 91/158/91 92/157/92 94/159/94 93/160/93
f 93/160/93 94/159/94 96/161/96 95/162/95
f 95/162/95 96/161/96 98/163/98 97/164/97
f 97/164/97 98/163/98 100/165/100 99/166/99
f 99/166/99 100/165/100 102/167/102 101/168/101
f 101/168/101 102/167/102 104/169/104 103/170/103
f 103/170/103 104/169/104 106/171/106 105/172/105
f 105/172/105 106/171/106 108/173/108 107/174/107
f 107/174/107 108/173/108 110/175/110 109/176/109
f 109/176/109 110/175/110 112/177/112 111/178/111
f 111/178/111 112/177/112 114/179/114 113/180/113
f 113/180/113 114/179/114 116/181/116 115/182/115
f 115/182/115 116/181/116 118/183/118 117/184/117
f 117/184/117 118/183/118 120/185/120 119/186/119
f 119/186/119 120/185/120 122/187/122 121/188/121
f 121/188/121 122/187/122 124/189/124 123/190/123
f 123/190/123 124/189/124 126/191/126 125/192/125
f 68/193/68 66/194/66 128/195/128 126/196/126 124/197/124 122/198/122 120/199/120 118/200/118 116/201/116 114/202/114 112/203/112 110/204/110 108/205/108 106/206/106 104/207/104 102/208/102 100/209/100 98/210/98 96/211/96 94/212/94 92/213/92 90/214/90 88/215/88 86/216/86 84/217/84 82/218/82 80/219/80 78/220/78 76/221/76 74/222/74 72/223/72 70/224/70
f 125/192/125 126/191/126 128/225/128 127/226/127
f 127/226/127 128/225/128 66/227/66 65/228/65
f 65/229/65 67/230/67 69/231/69 71/232/71 73/233/73 75/234/75 77/235/77 79/236/79 81/237/81 83/238/83 85/239/85 87/240/87 89/241/89 91/242/91 93/243/93 95/244/95 97/245/97 99/246/99 101/247/101 103/248/103 105/249/105 107/250/107 109/251/109 111/252/111 113/253/113 115/254/115 117/255/117 119/256/119 121/257/121 123/258/123 125/259/125 127/260/127
o Cylinder.002
v 0.000000 0.117510 -0.842184
v 0.000000 0.351146 -0.842184
v 0.164302 0.117510 -0.826001
v 0.164302 0.351146 -0.826001
v 0.322290 0.117510 -0.778076
v 0.322290 0.351146 -0.778076
v 0.467892 0.117510 -0.700250
v 0.467892 0.351146 -0.700250
v 0.595514 0.117510 -0.595514
v 0.595514 0.351146 -0.595514
v 0.700250 0.117510 -0.467892
v 0.700250 0.351146 -0.467892
v 0.778076 0.117510 -0.322290
v 0.778076 0.351146 -0.322290
v 0.826001 0.117510 -0.164302
v 0.826001 0.351146 -0.164302
v 0.842184 0.117510 0.000000
v 0.842184 0.351146 0.000000
v 0.826001 0.117510 0.164302
v 0.826001 0.351146 0.164302
v 0.778076 0.117510 0.322290
v 0.778076 0.351146 0.322290
v 0.700250 0.117510 0.467892
v 0.700250 0.351146 0.467892
v 0.595514 0.117510 0.595514
v 0.595514 0.351146 0.595514
v 0.467892 0.117510 0.700250
v 0.467892 0.351146 0.700250
v 0.322290 0.117510 0.778076
v 0.322290 0.351146 0.778076
v 0.164302 0.117510 0.826001
v 0.164302 0.351146 0.826001
v 0.000000 0.117510 0.842184
v 0.000000 0.351146 0.842184
v -0.164302 0.117510 0.826001
v -0.164302 0.351146 0.826001
v -0.322290 0.117510 0.778076
v -0.322290 0.351146 0.778076
v -0.467892 0.117510 0.700250
v -0.467892 0.351146 0.700250
v -0.595514 0.117510 0.595514
v -0.595514 0.351146 0.595514
v -0.700250 0.117510 0.467892
v -0.700250 0.351146 0.467892
v -0.778076 0.117510 0.322290
v -0.778076 0.351146 0.322290
v -0.826001 0.117510 0.164302
v -0.826001 0.351146 0.164302
v -0.842184 0.117510 0.000000
v -0.842184 0.351146 0.000000
v -0.826001 0.117510 -0.164302
v -0.826001 0.351146 -0.164302
v -0.778076 0.117510 -0.322290
v -0.778076 0.351146 -0.322290
v -0.700250 0.117510 -0.467892
v -0.700250 0.351146 -0.467892
v -0.595514 0.117510 -0.595514
v -0.595514 0.351146 -0.595514
v -0.467892 0.117510 -0.700250
v -0.467892 0.351146 -0.700250
v -0.322290 0.117510 -0.778076
v -0.322290 0.351146 -0.778076
v -0.164302 0.117510 -0.826001
v -0.164302 0.351146 -0.826001
vn -0.0000 -0.9893 -0.1457
vn -0.0000 0.9893 -0.1457
vn 0.0284 -0.9893 -0.1429
vn 0.0284 0.9893 -0.1429
vn 0.0557 -0.9893 -0.1346
vn 0.0557 0.9893 -0.1346
vn 0.0809 -0.9893 -0.1211
vn 0.0809 0.9893 -0.1211
vn 0.1030 -0.9893 -0.1030
vn 0.1030 0.9893 -0.1030
vn 0.1211 -0.9893 -0.0809
vn 0.1211 0.9893 -0.0809
vn 0.1346 -0.9893 -0.0557
vn 0.1346 0.9893 -0.0557
vn 0.1429 -0.9893 -0.0284
vn 0.1429 0.9893 -0.0284
vn 0.1457 -0.9893 -0.0000
vn 0.1457 0.9893 -0.0000
vn 0.1429 -0.9893 0.0284
vn 0.1429 0.9893 0.0284
vn 0.1346 -0.9893 0.0557
vn 0.1346 0.9893 0.0557
vn 0.1211 -0.9893 0.0809
vn 0.1211 0.9893 0.0809
vn 0.1030 -0.9893 0.1030
vn 0.1030 0.9893 0.1030
vn 0.0809 -0.9893 0.1211
vn 0.0809 0.9893 0.1211
vn 0.0557 -0.9893 0.1346
vn 0.0557 0.9893 0.1346
vn 0.0284 -0.9893 0.1429
vn 0.0284 0.9893 0.1429
vn -0.0000 -0.9893 0.1457
vn -0.0000 0.9893 0.1457
vn -0.0284 -0.9893 0.1429
vn -0.0284 0.9893 0.1429
vn -0.0557 -0.9893 0.1346
vn -0.0557 0.9893 0.1346
vn -0.0809 -0.9893 0.1211
vn -0.0809 0.9893 0.1211
vn -0.1030 -0.9893 0.1030
vn -0.1030 0.9893 0.1030
vn -0.1211 -0.9893 0.0809
vn -0.1211 0.9893 0.0809
vn -0.1346 -0.9893 0.0557
vn -0.1346 0.9893 0.0557
vn -0.1429 -0.9893 0.0284
vn -0.1429 0.9893 0.0284
vn -0.1457 -0.9893 -0.0000
vn -0.1457 0.9893 -0.0000
vn -0.1429 -0.9893 -0.0284
vn -0.1429 0.9893 -0.0284
vn -0.1346 -0.9893 -0.0557
vn -0.1346 0.9893 -0.0557
vn -0.1211 -0.9893 -0.0809
vn -0.1211 0.9893 -0.0809
vn -0.1030 -0.9893 -0.1030
vn -0.1030 0.9893 -0.1030
vn -0.0809 -0.9893 -0.1211
vn -0.0809 0.9893 -0.1211
vn -0.0557 -0.9893 -0.1346
vn -0.0557 0.9893 -0.1346
vn -0.0284 -0.9893 -0.1429
vn -0.0284 0.9893 -0.1429
vt 0.511902 0.000255
vt 0.767217 0.000255
vt 0.767217 0.016212
vt 0.511902 0.016212
vt 0.767217 0.032169
vt 0.511902 0.032169
vt 0.767217 0.048126
vt 0.511902 0.048126
vt 0.767217 0.064083
vt 0.511902 0.064083
vt 0.767217 0.080040
vt 0.511902 0.080040
vt 0.767217 0.095998
vt 0.511902 0.095998
vt 0.767217 0.111955
vt 0.511902 0.111955
vt 0.767217 0.127912
vt 0.511902 0.127912
vt 0.767217 0.143869
vt 0.511902 0.143869
vt 0.767217 0.159826
vt 0.511902 0.159826
vt 0.767217 0.175783
vt 0.511902 0.175783
vt 0.767217 0.191740
vt 0.511902 0.191740
vt 0.767217 0.207698
vt 0.511902 0.207698
vt 0.767217 0.223655
vt 0.511902 0.223655
vt 0.767217 0.239612
vt 0.511902 0.239612
vt 0.767217 0.255569
vt 0.511902 0.255569
vt 0.767217 0.271526
vt 0.511902 0.271526
vt 0.767217 0.287483
vt 0.511902 0.287483
vt 0.767217 0.303441
vt 0.511902 0.303441
vt 0.767217 0.319398
vt 0.511902 0.319398
vt 0.767217 0.335355
vt 0.511902 0.335355
vt 0.767217 0.351312
vt 0.511902 0.351312
vt 0.767217 0.367269
vt 0.511902 0.367269
vt 0.767217 0.383226
vt 0.511902 0.383226
vt 0.767217 0.399183
vt 0.511902 0.399183
vt 0.767217 0.415141
vt 0.511902 0.415141
vt 0.767217 0.431098
vt 0.511902 0.431098
vt 0.767217 0.447055
vt 0.511902 0.447055
vt 0.767217 0.463012
vt 0.511902 0.463012
vt 0.767217 0.478969
vt 0.511902 0.478969
vt 0.390051 0.999745
vt 0.366027 0.999745
vt 0.342465 0.995058
vt 0.320269 0.985865
vt 0.300294 0.972518
vt 0.283306 0.955530
vt 0.269959 0.935555
vt 0.260765 0.913359
vt 0.256078 0.889797
vt 0.256078 0.865772
vt 0.260765 0.842210
vt 0.269959 0.820014
vt 0.283306 0.800039
vt 0.300294 0.783051
vt 0.320269 0.769704
vt 0.342465 0.760511
vt 0.366027 0.755824
vt 0.390051 0.755824
vt 0.413614 0.760511
vt 0.435809 0.769704
vt 0.455785 0.783051
vt 0.472772 0.800039
vt 0.486120 0.820015
vt 0.495313 0.842210
vt 0.500000 0.865773
vt 0.500000 0.889797
vt 0.495313 0.913359
vt 0.486119 0.935555
vt 0.472772 0.955530
vt 0.455785 0.972518
vt 0.435809 0.985865
vt 0.413614 0.995059
vt 0.767217 0.494926
vt 0.511902 0.494926
vt 0.767217 0.510883
vt 0.511902 0.510884
vt 0.505196 0.668928
vt 0.514390 0.691124
vt 0.527737 0.711099
vt 0.544725 0.728087
vt 0.564700 0.741434
vt 0.586896 0.750628
vt 0.610458 0.755314
vt 0.634482 0.755314
vt 0.658045 0.750628
vt 0.680240 0.741434
vt 0.700216 0.728087
vt 0.717203 0.711099
vt 0.730550 0.691124
vt 0.739744 0.668928
vt 0.744431 0.645366
vt 0.744431 0.621342
vt 0.739744 0.597779
vt 0.730550 0.575584
vt 0.717203 0.555608
vt 0.700216 0.538621
vt 0.680240 0.525273
vt 0.658045 0.516080
vt 0.634482 0.511393
vt 0.610458 0.511393
vt 0.586895 0.516080
vt 0.564700 0.525273
vt 0.544725 0.538621
vt 0.527737 0.555608
vt 0.514390 0.575584
vt 0.505196 0.597779
vt 0.500509 0.621342
vt 0.500509 0.645366
s 1
usemtl Material.001
f 129/261/129 130/262/130 132/263/132 131/264/131
f 131/264/131 132/263/132 134/265/134 133/266/133
f 133/266/133 134/265/134 136/267/136 135/268/135
f 135/268/135 136/267/136 138/269/138 137/270/137
f 137/270/137 138/269/138 140/271/140 139/272/139
f 139/272/139 140/271/140 142/273/142 141/274/141
f 141/274/141 142/273/142 144/275/144 143/276/143
f 143/276/143 144/275/144 146/277/146 145/278/145
f 145/278/145 146/277/146 148/279/148 147/280/147
f 147/280/147 148/279/148 150/281/150 149/282/149
f 149/282/149 150/281/150 152/283/152 151/284/151
f 151/284/151 152/283/152 154/285/154 153/286/153
f 153/286/153 154/285/154 156/287/156 155/288/155
f 155/288/155 156/287/156 158/289/158 157/290/157
f 157/290/157 158/289/158 160/291/160 159/292/159
f 159/292/159 160/291/160 162/293/162 161/294/161
f 161/294/161 162/293/162 164/295/164 163/296/163
f 163/296/163 164/295/164 166/297/166 165/298/165
f 165/298/165 166/297/166 168/299/168 167/300/167
f 167/300/167 168/299/168 170/301/170 169/302/169
f 169/302/169 170/301/170 172/303/172 171/304/171
f 171/304/171 172/303/172 174/305/174 173/306/173
f 173/306/173 174/305/174 176/307/176 175/308/175
f 175/308/175 176/307/176 178/309/178 177/310/177
f 177/310/177 178/309/178 180/311/180 179/312/179
f 179/312/179 180/311/180 182/313/182 181/314/181
f 181/314/181 182/313/182 184/315/184 183/316/183
f 183/316/183 184/315/184 186/317/186 185/318/185
f 185/318/185 186/317/186 188/319/188 187/320/187
f 187/320/187 188/319/188 190/321/190 189/322/189
f 132/323/132 130/324/130 192/325/192 190/326/190 188/327/188 186/328/186 184/329/184 182/330/182 180/331/180 178/332/178 176/333/176 174/334/174 172/335/172 170/336/170 168/337/168 166/338/166 164/339/164 162/340/162 160/341/160 158/342/158 156/343/156 154/344/154 152/345/152 150/346/150 148/347/148 146/348/146 144/349/144 142/350/142 140/351/140 138/352/138 136/353/136 134/354/134
f 189/322/189 190/321/190 192/355/192 191/356/191
f 191/356/191 192/355/192 130/357/130 129/358/129
f 129/359/129 131/360/131 133/361/133 135/362/135 137/363/137 139/364/139 141/365/141 143/366/143 145/367/145 147/368/147 149/369/149 151/370/151 153/371/153 155/372/155 157/373/157 159/374/159 161/375/161 163/376/163 165/377/165 167/378/167 169/379/169 171/380/171 173/381/173 175/382/175 177/383/177 179/384/179 181/385/181 183/386/183 185/387/185 187/388/187 189/389/189 191/390/191
